<?xml version="1.0" encoding="UTF-8"?>
<svg id="Layer_1" data-name="Layer 1" xmlns="http://www.w3.org/2000/svg" viewBox="0 0 2072 271.6">
  <defs>
    <style>
      .cls-1 {
        stroke-width: 0px;
      }
    </style>
  </defs>
  <g>
    <path class="cls-1" d="m146.93,149.47c-12.65-4.08-28.5-7.14-47.12-9.12-13.94-1.71-24.17-3.22-30.4-4.5-6.41-1.31-11.81-3.68-16.05-7.05-4.39-3.48-6.62-8.74-6.62-15.61,0-9.2,4.34-16.56,12.91-21.88,8.4-5.21,19.51-7.85,33.03-7.85,13.55,0,24.97,3.3,33.95,9.82,8.75,6.35,13.88,14.52,15.27,24.31h42.55c-1.66-21.14-10.86-37.8-27.38-49.54-16.93-12.03-39.31-18.14-66.53-18.14-16.53,0-31.53,2.84-44.56,8.44-12.97,5.58-23.29,13.56-30.67,23.72-7.36,10.13-11.09,21.89-11.09,34.95,0,13.87,3.71,25.02,11.01,33.16,7.37,8.2,17.25,14.26,29.35,18.01,12.23,3.8,28.03,6.87,46.93,9.13,13.91,1.7,24.35,3.36,31.05,4.93,6.86,1.61,12.42,4.36,16.52,8.17,4.21,3.91,6.34,9.79,6.34,17.48,0,9.2-4.56,16.64-13.57,22.1-8.82,5.35-20.43,8.06-34.51,8.06-15.82,0-28.89-3.74-38.86-11.1-9.74-7.2-15.24-16.52-16.37-27.72H0c.84,22.28,10.07,40.03,27.44,52.75,17.78,13.02,41.45,19.62,70.35,19.62,17.13,0,32.77-2.77,46.5-8.24,13.68-5.44,24.57-13.35,32.37-23.52,7.77-10.13,11.71-22.02,11.71-35.35,0-15-3.78-27.02-11.24-35.73-7.51-8.75-17.67-15.24-30.2-19.28Z"/>
    <path class="cls-1" d="m396.49,98.84c9.1,15.4,13.85,33.73,14.13,54.45,0,5.31-.38,10.81-1.13,16.35h-164.82s0,3.77,0,3.77c1.15,19.25,7.28,34.71,18.24,45.96,10.98,11.27,25.76,16.98,43.91,16.98,14.39,0,26.67-3.44,36.49-10.23,9.63-6.66,16.16-16.13,19.43-28.17h43.81c-4.11,21.2-14.72,38.88-31.55,52.57-17.2,13.98-38.99,21.07-64.76,21.07-22.44,0-42.28-4.62-58.96-13.73-16.65-9.09-29.7-22.07-38.8-38.58-9.1-16.53-13.72-36-13.72-57.89,0-22.17,4.48-41.88,13.3-58.55,8.82-16.65,21.3-29.7,37.1-38.79,15.82-9.1,34.22-13.72,54.67-13.72,20.75,0,39.31,4.26,55.14,12.67,15.8,8.39,28.43,20.44,37.52,35.83Zm-30.35,39.38l-.16-1.29c-2.02-16.15-8.54-28.95-19.38-38.06-10.83-9.09-24.65-13.7-41.05-13.7-15.28,0-28.66,4.75-39.78,14.13-11.13,9.4-17.65,22.07-19.38,37.65l-.14,1.27h119.9Z"/>
    <path class="cls-1" d="m679.67,50.34c-17.35,0-32.38,3.47-44.67,10.31-12.28,6.84-22.33,16.54-29.87,28.82l-1.11,1.81-.9-1.93c-6.13-13.09-15.01-22.96-26.4-29.35-11.44-6.41-24.89-9.67-39.97-9.67-26.51.28-47.74,10.61-63.08,30.69l-1.58,2.07-5.41-30.2h-38v216.14h43.78v-115.75c0-19.8,4.75-35.83,14.11-47.64,9.43-11.89,22.29-17.92,38.23-17.92,15.37,0,27.23,5.1,35.24,15.15,7.95,9.97,11.98,24.93,11.98,44.44v121.72h44.21v-117.03c0-19.81,4.75-35.63,14.12-47.02,9.43-11.46,22.43-17.27,38.64-17.27,15.38,0,27.16,5.17,35.04,15.37,7.8,10.12,11.76,24.99,11.76,44.22v121.72h43.78v-122.15c0-33.66-7.5-58.44-22.29-73.65-14.78-15.2-34.17-22.9-57.62-22.9Z"/>
    <path class="cls-1" d="m946.75,70.54c-15.64-13.4-38.21-20.2-67.09-20.2-27.21,0-49.53,6.03-66.32,17.92-16.37,11.6-25.92,28.05-28.39,48.9h42.98c1.92-9.79,7.27-17.61,15.9-23.27,8.82-5.79,20.16-8.72,33.69-8.72,15.27,0,27.43,3.6,36.14,10.71,8.77,7.16,13.22,17.15,13.22,29.68v14.37h-55.75c-30.03,0-53.27,6.02-69.06,17.9-15.69,11.81-23.65,28.94-23.65,50.92,0,19.45,7.17,34.93,21.32,46.03,14.23,11.16,33.52,16.82,57.31,16.82,64.15,0,76.1-35.49,76.1-35.49v32.92h37.08v-140.92c0-24.85-7.9-44.22-23.49-57.58Zm-19.87,110.07c-.28,17.3-5.93,31.36-16.78,41.76-10.83,10.4-26.1,15.68-45.38,15.68-12.72,0-22.93-2.95-30.36-8.78-7.51-5.89-11.32-13.8-11.32-23.51,0-11.14,4.04-19.71,11.99-25.45,7.84-5.67,19.12-8.54,33.52-8.54h58.31v8.85Z"/>
    <path class="cls-1" d="m1104.9,50.34c-29.64,0-52.88,10.33-69.07,30.71l-1.58,1.99-5.4-30.14h-38v216.14h43.78v-108.92c0-22.36,5.33-40.18,15.83-52.99,10.56-12.87,25.28-19.4,43.76-19.4,17.35,0,30.71,5.6,39.71,16.63,8.95,10.97,13.49,27.15,13.49,48.08v116.6h44.21v-119.16c0-34.78-8.14-60.34-24.18-75.97-16.06-15.64-37.1-23.57-62.55-23.57Z"/>
    <path class="cls-1" d="m1256.04,0h-43.78v210.89c0,19.79,4.63,34.59,13.75,43.99,9.12,9.39,24.06,14.16,44.4,14.16h38.53v-38.23h-29.14c-8.53,0-14.7-1.91-18.32-5.69-3.61-3.76-5.44-10.13-5.44-18.93v-115.05s52.9,0,52.9,0v-38.24h-52.9s0-52.9,0-52.9Z"/>
    <rect class="cls-1" x="1329.57" y="52.9" width="43.78" height="216.14"/>
    <polygon class="cls-1" points="1589.43 52.9 1539.22 52.9 1437.75 161.31 1437.75 0 1393.97 0 1393.97 269.04 1437.75 269.04 1437.75 213.84 1438.07 213.51 1477.88 171.51 1543.18 269.04 1595.04 269.04 1509.12 139.52 1589.43 52.9"/>
    <path class="cls-1" d="m1728.2,149.47c-12.65-4.08-28.5-7.14-47.12-9.12-13.94-1.71-24.16-3.22-30.4-4.5-6.4-1.31-11.8-3.68-16.05-7.05-4.39-3.48-6.62-8.74-6.62-15.61,0-9.2,4.34-16.56,12.91-21.88,8.4-5.21,19.51-7.85,33.02-7.85,13.55,0,24.98,3.3,33.95,9.82,8.75,6.34,13.88,14.52,15.27,24.31h42.55c-1.65-21.14-10.86-37.8-27.38-49.54-16.93-12.03-39.32-18.14-66.53-18.14-16.53,0-31.52,2.84-44.56,8.44-12.97,5.58-23.29,13.56-30.67,23.72-7.36,10.13-11.09,21.89-11.09,34.95,0,13.87,3.71,25.02,11.01,33.16,7.37,8.2,17.25,14.26,29.35,18.01,12.23,3.8,28.03,6.87,46.94,9.13,13.9,1.7,24.35,3.36,31.05,4.93,6.86,1.61,12.42,4.36,16.52,8.17,4.2,3.9,6.34,9.78,6.34,17.48,0,9.2-4.56,16.64-13.56,22.1-8.82,5.35-20.43,8.06-34.51,8.06-15.82,0-28.89-3.74-38.86-11.1-9.74-7.2-15.24-16.52-16.37-27.72h-42.13c.84,22.28,10.07,40.02,27.44,52.75,17.78,13.02,41.45,19.62,70.35,19.62,17.13,0,32.78-2.77,46.5-8.24,13.68-5.44,24.57-13.35,32.37-23.52,7.77-10.13,11.71-22.02,11.71-35.35,0-15-3.78-27.03-11.24-35.73-7.5-8.75-17.67-15.24-30.2-19.28Z"/>
  </g>
  <g>
    <path class="cls-1" d="m2007.09,70.08c-14.79-13.1-35.91-19.74-62.77-19.74-24.05,0-43.89,5.65-58.97,16.79-14.69,10.85-23.66,25.86-26.7,44.65h19.69c3.04-13.3,10.23-24.09,21.36-32.09,11.35-8.15,26.07-12.28,43.75-12.28,20.58,0,36.92,5.1,48.57,15.15,11.7,10.09,17.63,24.08,17.63,41.58v22.27h-75.25c-26.9,0-47.89,5.64-62.4,16.78-14.42,11.06-21.74,27.06-21.74,47.55,0,18.49,7.03,33.4,20.89,44.32,13.94,10.98,32.91,16.55,56.36,16.55,57.83,0,75.75-29.04,82.79-42.56v39.98h19.01V125.43c0-23.67-7.48-42.29-22.22-55.35Zm2.57,114.8c-.58,20.94-8.03,38.03-22.13,50.83-14.08,12.78-33.69,19.25-58.29,19.25-17.99,0-32.43-4.14-42.93-12.3-10.59-8.23-15.96-19.26-15.96-32.79,0-14.96,5.52-26.66,16.41-34.75,10.78-8.01,26.09-12.08,45.49-12.08h77.4v21.84Z"/>
    <rect class="cls-1" x="2052.35" y="52.93" width="19.65" height="216.09"/>
    <circle class="cls-1" cx="1813.8" cy="256.39" r="15.21"/>
  </g>
</svg>